<?xml version="1.0" encoding="UTF-8" standalone="no"?>
<svg
   xmlns:dc="http://purl.org/dc/elements/1.1/"
   xmlns:cc="http://creativecommons.org/ns#"
   xmlns:rdf="http://www.w3.org/1999/02/22-rdf-syntax-ns#"
   xmlns:svg="http://www.w3.org/2000/svg"
   xmlns="http://www.w3.org/2000/svg"
   xmlns:sodipodi="http://sodipodi.sourceforge.net/DTD/sodipodi-0.dtd"
   xmlns:inkscape="http://www.inkscape.org/namespaces/inkscape"
   width="46.801853mm"
   height="10.445521mm"
   viewBox="0 0 46.801853 10.445521"
   version="1.1"
   id="svg8"
   inkscape:version="1.0.2 (e86c870879, 2021-01-15, custom)"
   sodipodi:docname="logo.svg"
   inkscape:export-filename="C:\Users\dongr\Desktop\drawing.png"
   inkscape:export-xdpi="299.89999"
   inkscape:export-ydpi="299.89999">
  <defs
     id="defs2" />
  <sodipodi:namedview
     id="base"
     pagecolor="#ffffff"
     bordercolor="#666666"
     borderopacity="1.0"
     inkscape:pageopacity="0.0"
     inkscape:pageshadow="2"
     inkscape:zoom="3.959798"
     inkscape:cx="57.621853"
     inkscape:cy="18.83224"
     inkscape:document-units="mm"
     inkscape:current-layer="layer1"
     inkscape:document-rotation="0"
     showgrid="false"
     showguides="true"
     inkscape:guide-bbox="true"
     inkscape:window-width="1920"
     inkscape:window-height="1027"
     inkscape:window-x="-8"
     inkscape:window-y="-8"
     inkscape:window-maximized="1">
    <sodipodi:guide
       position="26.141958,0.041565824"
       orientation="0,-1"
       id="guide18" />
  </sodipodi:namedview>
  <metadata
     id="metadata5">
    <rdf:RDF>
      <cc:Work
         rdf:about="">
        <dc:format>image/svg+xml</dc:format>
        <dc:type
           rdf:resource="http://purl.org/dc/dcmitype/StillImage" />
        <dc:title />
      </cc:Work>
    </rdf:RDF>
  </metadata>
  <g
     inkscape:label="Layer 1"
     inkscape:groupmode="layer"
     id="layer1"
     transform="translate(-35.83116,-117.58473)">
    <path
       id="text16"
       style="font-style:normal;font-variant:normal;font-weight:normal;font-stretch:normal;font-size:14.1111px;line-height:1.25;font-family:Iosevka;-inkscape-font-specification:Iosevka;fill:#483e37;fill-opacity:1;stroke:none;stroke-width:0.264583"
       sodipodi:type="inkscape:offset"
       inkscape:radius="0"
       inkscape:original="M 78.890625 117.97461 C 78.241514 118.00281 77.579237 118.07398 76.916016 118.01758 C 76.789016 118.00348 76.64697 118.00348 76.505859 118.01758 C 76.280082 118.04578 76.139111 118.21563 76.125 118.44141 C 76.125 118.52611 76.140187 118.61065 76.154297 118.69531 C 76.253077 119.33031 76.238328 119.95138 76.111328 120.57227 C 76.068998 120.72749 76.041902 120.88189 76.013672 121.03711 C 75.943112 121.38989 75.956794 121.74293 76.027344 122.0957 C 76.041454 122.1945 76.068998 122.30791 76.111328 122.39258 C 76.252439 122.68891 76.491851 122.81514 76.816406 122.73047 C 76.943406 122.70227 77.070266 122.65997 77.197266 122.60352 C 77.408932 122.53292 77.63599 122.50448 77.847656 122.54688 C 78.242767 122.60327 78.623346 122.70327 78.990234 122.88672 C 79.230123 123.01372 79.414455 123.19566 79.527344 123.43555 C 79.626124 123.6331 79.710255 123.84541 79.794922 124.04297 C 80.063033 124.57919 80.076269 125.11612 79.822266 125.65234 C 79.779936 125.76523 79.724416 125.87735 79.667969 125.99023 C 79.597409 126.11723 79.497654 126.22936 79.384766 126.32812 C 79.06021 126.62447 78.539203 126.70971 78.158203 126.49805 C 77.819537 126.3146 77.620898 126.00405 77.564453 125.62305 C 77.536233 125.32671 77.565042 125.03134 77.734375 124.77734 C 77.776705 124.67854 77.833105 124.59292 77.861328 124.49414 C 77.931888 124.26836 77.846868 124.11352 77.621094 124.04297 C 77.564654 124.02887 77.508056 124.01562 77.4375 124.01562 C 77.155278 123.98743 76.87314 124.04332 76.619141 124.15625 C 76.421585 124.24095 76.267821 124.39576 76.197266 124.60742 C 76.154936 124.70622 76.139548 124.80552 76.111328 124.9043 C 75.941995 125.5393 75.871337 126.20201 75.800781 126.86523 C 75.786671 126.93583 75.800781 127.00562 75.800781 127.07617 C 75.800781 127.21728 75.842631 127.34458 75.941406 127.44336 C 76.167184 127.68325 76.43521 127.7958 76.759766 127.76758 C 77.310099 127.73938 77.861973 127.75348 78.46875 127.76758 C 78.863861 127.76758 79.329695 127.755 79.78125 127.7832 C 80.049361 127.7973 80.331498 127.76777 80.599609 127.69727 C 80.754831 127.65497 80.894924 127.58511 81.007812 127.48633 C 81.318258 127.20411 81.5438 126.89359 81.642578 126.48438 C 81.684908 126.30093 81.742823 126.11704 81.785156 125.93359 C 81.813376 125.79248 81.839844 125.65088 81.839844 125.50977 L 81.839844 124.84766 C 81.811624 124.38199 81.713863 123.92983 81.431641 123.54883 C 81.346971 123.43594 81.275634 123.31015 81.205078 123.19727 C 81.120408 123.05615 81.021531 122.91367 80.894531 122.80078 C 80.555865 122.50445 80.218255 122.22251 79.794922 122.03906 C 79.188145 121.78506 78.622599 121.43329 78.072266 121.06641 C 77.917044 120.96761 77.805809 120.84077 77.707031 120.68555 C 77.43892 120.23399 77.677591 119.48598 78.058594 119.24609 C 78.340816 119.09087 78.638335 118.99131 78.962891 119.01953 C 79.287446 119.03363 79.499122 119.25943 79.527344 119.58398 C 79.527344 119.69687 79.512157 119.8105 79.498047 119.9375 C 79.483937 120.0081 79.470703 120.09111 79.470703 120.17578 C 79.470703 120.37334 79.554833 120.50215 79.738281 120.55859 C 79.992281 120.62919 80.232328 120.65558 80.486328 120.61328 C 80.867328 120.52858 81.079639 120.31698 81.09375 119.92188 C 81.10786 119.61142 81.093553 119.3163 81.037109 119.00586 C 81.008889 118.89297 80.966159 118.76523 80.923828 118.65234 C 80.754495 118.31368 80.50014 118.11655 80.119141 118.07422 C 79.822808 118.04602 79.51313 118.00281 79.216797 117.97461 C 79.103908 117.96051 79.003514 117.96051 78.890625 117.97461 z M 69.4375 118.01758 C 69.141167 118.03168 68.872168 118.17192 68.900391 118.60938 C 68.914501 118.84925 68.900391 119.10342 68.900391 119.35742 L 68.900391 119.58398 C 68.928611 120.21898 68.844671 120.84049 68.689453 121.44727 C 68.661233 121.56015 68.646922 121.67227 68.632812 121.78516 C 68.576373 122.26493 68.464255 122.71685 68.294922 123.1543 C 68.196142 123.38007 68.152783 123.61949 68.138672 123.85938 C 68.110452 124.18393 68.068162 124.50943 68.011719 124.83398 C 67.927049 125.21498 67.898877 125.61031 67.884766 126.01953 C 67.842436 126.72509 68.533212 127.47261 69.097656 127.59961 C 69.6621 127.72661 70.212461 127.79712 70.791016 127.72656 C 71.073238 127.69836 71.35645 127.69783 71.638672 127.74023 C 72.090227 127.79663 72.556258 127.78197 73.007812 127.69727 C 73.374702 127.61257 73.713236 127.45888 73.953125 127.14844 C 74.221236 126.82388 74.346778 126.42768 74.375 125.99023 C 74.40322 125.72212 74.390434 125.4541 74.333984 125.17188 C 74.291654 124.87553 74.235254 124.55068 74.207031 124.24023 C 74.164701 123.9439 74.094432 123.6479 74.009766 123.35156 C 73.939206 123.18223 73.883056 122.9979 73.8125 122.81445 C 73.74194 122.56045 73.669483 122.2935 73.683594 122.02539 C 73.697704 121.60206 73.614404 121.20761 73.515625 120.8125 C 73.459185 120.61494 73.403222 120.40307 73.375 120.19141 C 73.31856 119.65518 73.26104 119.10458 73.345703 118.56836 C 73.359813 118.54016 73.359375 118.49695 73.359375 118.46875 C 73.345265 118.28531 73.261565 118.15801 73.078125 118.10156 C 72.993455 118.07336 72.908446 118.06055 72.837891 118.06055 L 72.386719 118.06055 C 71.779941 118.06055 71.173184 118.07408 70.566406 118.01758 C 70.199518 117.98938 69.8185 118.00348 69.4375 118.01758 z M 70.623047 119.35742 C 70.947602 119.0752 71.313042 119.07674 71.609375 119.37305 C 71.877486 119.62705 72.07505 119.93585 72.173828 120.30273 C 72.187938 120.33093 72.189015 120.36047 72.203125 120.38867 C 72.287795 120.92489 72.386037 121.4755 72.470703 122.01172 C 72.484813 122.12461 72.484375 122.23672 72.484375 122.34961 C 72.498485 122.64594 72.526906 122.94239 72.541016 123.22461 C 72.555126 123.91605 72.527826 124.59264 72.386719 125.25586 C 72.259719 125.87675 71.835489 126.2022 71.285156 126.35742 C 70.791268 126.49853 70.453658 126.31592 70.185547 125.89258 C 69.84688 125.34225 69.591992 124.76327 69.648438 124.08594 C 69.662548 124.00124 69.648438 123.9167 69.648438 123.83203 C 69.648438 123.67681 69.676658 123.52046 69.648438 123.36523 C 69.577877 122.84312 69.677048 122.33612 69.761719 121.82812 C 69.804049 121.57413 69.873682 121.32041 69.916016 121.06641 C 69.958346 120.85474 70.000636 120.65698 70.042969 120.44531 C 70.099409 120.14898 70.199368 119.88051 70.382812 119.64062 C 70.453373 119.54183 70.53838 119.44209 70.623047 119.35742 z "
       d="m 78.890625,117.97461 c -0.649111,0.0282 -1.311388,0.0994 -1.974609,0.043 -0.127,-0.0141 -0.269046,-0.0141 -0.410157,0 -0.225777,0.0282 -0.366748,0.19805 -0.380859,0.42383 0,0.0847 0.01519,0.16924 0.0293,0.2539 0.09878,0.635 0.08403,1.25607 -0.04297,1.87696 -0.04233,0.15522 -0.06943,0.30962 -0.09766,0.46484 -0.07056,0.35278 -0.05688,0.70582 0.01367,1.05859 0.01411,0.0988 0.04165,0.21221 0.08398,0.29688 0.141111,0.29633 0.380523,0.42256 0.705078,0.33789 0.127,-0.0282 0.25386,-0.0705 0.38086,-0.12695 0.211666,-0.0706 0.438724,-0.099 0.65039,-0.0566 0.395111,0.0564 0.77569,0.15639 1.142578,0.33984 0.239889,0.127 0.424221,0.30894 0.53711,0.54883 0.09878,0.19755 0.182911,0.40986 0.267578,0.60742 0.268111,0.53622 0.281347,1.07315 0.02734,1.60937 -0.04233,0.11289 -0.09785,0.22501 -0.154297,0.33789 -0.07056,0.127 -0.170315,0.23913 -0.283203,0.33789 -0.324556,0.29635 -0.845563,0.38159 -1.226563,0.16993 -0.338666,-0.18345 -0.537305,-0.494 -0.59375,-0.875 -0.02822,-0.29634 5.89e-4,-0.59171 0.169922,-0.84571 0.04233,-0.0988 0.09873,-0.18442 0.126953,-0.2832 0.07056,-0.22578 -0.01446,-0.38062 -0.240234,-0.45117 -0.05644,-0.0141 -0.113038,-0.0273 -0.183594,-0.0273 -0.282222,-0.0282 -0.56436,0.0277 -0.818359,0.14063 -0.197556,0.0847 -0.35132,0.23951 -0.421875,0.45117 -0.04233,0.0988 -0.05772,0.1981 -0.08594,0.29688 -0.169333,0.635 -0.239991,1.29771 -0.310547,1.96093 -0.01411,0.0706 0,0.14039 0,0.21094 0,0.14111 0.04185,0.26841 0.140625,0.36719 0.225778,0.23989 0.493804,0.35244 0.81836,0.32422 0.550333,-0.0282 1.102207,-0.0141 1.708984,0 0.395111,0 0.860945,-0.0126 1.3125,0.0156 0.268111,0.0141 0.550248,-0.0154 0.818359,-0.0859 0.155222,-0.0423 0.295315,-0.11216 0.408203,-0.21094 0.310446,-0.28222 0.535988,-0.59274 0.634766,-1.00195 0.04233,-0.18345 0.100245,-0.36734 0.142578,-0.55079 0.02822,-0.14111 0.05469,-0.28271 0.05469,-0.42382 v -0.66211 c -0.02822,-0.46567 -0.125981,-0.91783 -0.408203,-1.29883 -0.08467,-0.11289 -0.156007,-0.23868 -0.226563,-0.35156 -0.08467,-0.14112 -0.183547,-0.2836 -0.310547,-0.39649 -0.338666,-0.29633 -0.676276,-0.57827 -1.099609,-0.76172 -0.606777,-0.254 -1.172323,-0.60577 -1.722656,-0.97265 -0.155222,-0.0988 -0.266457,-0.22564 -0.365235,-0.38086 -0.268111,-0.45156 -0.02944,-1.19957 0.351563,-1.43946 0.282222,-0.15522 0.579741,-0.25478 0.904297,-0.22656 0.324555,0.0141 0.536231,0.2399 0.564453,0.56445 0,0.11289 -0.01519,0.22652 -0.0293,0.35352 -0.01411,0.0706 -0.02734,0.15361 -0.02734,0.23828 0,0.19756 0.08413,0.32637 0.267578,0.38281 0.254,0.0706 0.494047,0.097 0.748047,0.0547 0.381,-0.0847 0.593311,-0.2963 0.607422,-0.6914 0.01411,-0.31046 -1.97e-4,-0.60558 -0.05664,-0.91602 -0.02822,-0.11289 -0.07095,-0.24063 -0.113281,-0.35352 -0.169333,-0.33866 -0.423688,-0.53579 -0.804687,-0.57812 -0.296333,-0.0282 -0.606011,-0.0714 -0.902344,-0.0996 -0.112889,-0.0141 -0.213283,-0.0141 -0.326172,0 z m -9.453125,0.043 c -0.296333,0.0141 -0.565332,0.15434 -0.537109,0.5918 0.01411,0.23987 0,0.49404 0,0.74804 v 0.22656 c 0.02822,0.635 -0.05572,1.25651 -0.210938,1.86329 -0.02822,0.11288 -0.04253,0.225 -0.05664,0.33789 -0.05644,0.47977 -0.168557,0.93169 -0.33789,1.36914 -0.09878,0.22577 -0.142139,0.46519 -0.15625,0.70508 -0.02822,0.32455 -0.07051,0.65005 -0.126953,0.9746 -0.08467,0.381 -0.112842,0.77633 -0.126953,1.18555 -0.04233,0.70556 0.648446,1.45308 1.21289,1.58008 0.564444,0.127 1.114805,0.19751 1.69336,0.12695 0.282222,-0.0282 0.565434,-0.0287 0.847656,0.0137 0.451555,0.0564 0.917586,0.0417 1.36914,-0.043 0.36689,-0.0847 0.705424,-0.23839 0.945313,-0.54883 0.268111,-0.32456 0.393653,-0.72076 0.421875,-1.15821 0.02822,-0.26811 0.01543,-0.53613 -0.04102,-0.81835 -0.04233,-0.29635 -0.09873,-0.6212 -0.126953,-0.93165 -0.04233,-0.29633 -0.112599,-0.59233 -0.197265,-0.88867 -0.07056,-0.16933 -0.12671,-0.35366 -0.197266,-0.53711 -0.07056,-0.254 -0.143017,-0.52095 -0.128906,-0.78906 0.01411,-0.42333 -0.06919,-0.81778 -0.167969,-1.21289 -0.05644,-0.19756 -0.112403,-0.40943 -0.140625,-0.62109 -0.05644,-0.53623 -0.11396,-1.08683 -0.0293,-1.62305 0.01411,-0.0282 0.01367,-0.0714 0.01367,-0.0996 -0.01411,-0.18344 -0.09781,-0.31074 -0.28125,-0.36719 -0.08467,-0.0282 -0.169679,-0.041 -0.240234,-0.041 h -0.451172 c -0.606778,0 -1.213535,0.0135 -1.820313,-0.043 -0.366888,-0.0282 -0.747906,-0.0141 -1.128906,0 z m 1.185547,1.33984 c 0.324555,-0.28222 0.689995,-0.28068 0.986328,0.0156 0.268111,0.254 0.465675,0.5628 0.564453,0.92968 0.01411,0.0282 0.01519,0.0577 0.0293,0.0859 0.08467,0.53622 0.182912,1.08683 0.267578,1.62305 0.01411,0.11289 0.01367,0.225 0.01367,0.33789 0.01411,0.29633 0.04253,0.59278 0.05664,0.875 0.01411,0.69144 -0.01319,1.36803 -0.154297,2.03125 -0.127,0.62089 -0.55123,0.94634 -1.101563,1.10156 -0.493888,0.14111 -0.831498,-0.0415 -1.099609,-0.46484 -0.338667,-0.55033 -0.593555,-1.12931 -0.537109,-1.80664 0.01411,-0.0847 0,-0.16924 0,-0.25391 0,-0.15522 0.02822,-0.31157 0,-0.4668 -0.07056,-0.52211 0.02861,-1.02911 0.113281,-1.53711 0.04233,-0.25399 0.111963,-0.50771 0.154297,-0.76171 0.04233,-0.21167 0.08462,-0.40943 0.126953,-0.6211 0.05644,-0.29633 0.156399,-0.5648 0.339843,-0.80469 0.07056,-0.0988 0.155568,-0.19853 0.240235,-0.2832 z" />
    <g
       aria-label="Alive"
       id="text12"
       style="font-style:normal;font-weight:normal;font-size:14.1111px;line-height:1.25;font-family:sans-serif;fill:#d40000;fill-opacity:1;stroke:none;stroke-width:0.264583">
      <path
         id="path20"
         style="font-style:normal;font-variant:normal;font-weight:normal;font-stretch:normal;font-size:14.1111px;font-family:Art-nuvo;-inkscape-font-specification:Art-nuvo;fill:#88aa00;stroke-width:0.264583"
         sodipodi:type="inkscape:offset"
         inkscape:radius="0"
         inkscape:original="M 39.583984 117.7832 C 39.075985 117.7409 38.51215 117.83889 37.933594 117.86719 C 37.665484 117.88129 37.411325 117.96677 37.185547 118.09375 C 37.030325 118.16425 36.903466 118.27686 36.804688 118.41797 C 36.550688 118.7143 36.620514 119.19327 37.015625 119.44727 C 37.128514 119.50367 37.255617 119.47565 37.326172 119.37695 C 37.368502 119.33465 37.383879 119.26348 37.412109 119.20703 C 37.454439 119.13653 37.467426 119.05297 37.509766 118.98242 C 37.693211 118.68608 38.018802 118.65762 38.230469 118.92578 C 38.343357 119.05278 38.384326 119.20806 38.398438 119.36328 C 38.426657 119.57495 38.4143 119.78682 38.34375 119.98438 C 38.25908 120.21016 38.215722 120.44956 38.1875 120.68945 C 38.17339 120.97167 38.103755 121.25337 38.033203 121.52148 C 37.892092 122.02948 37.764158 122.53888 37.623047 123.04688 C 37.608937 123.13157 37.594188 123.21461 37.580078 123.28516 C 37.523638 123.69438 37.4395 124.09122 37.3125 124.48633 C 37.28428 124.58513 37.256746 124.69614 37.228516 124.79492 C 37.087405 125.33114 37.045164 125.88325 36.974609 126.43359 C 36.946389 126.63114 36.945075 126.81461 37.015625 126.99805 C 37.100295 127.26616 37.270952 127.44811 37.539062 127.54688 C 37.65195 127.58917 37.77925 127.60352 37.90625 127.60352 C 38.075583 127.61762 38.244729 127.63196 38.414062 127.66016 C 38.809173 127.70246 39.204498 127.65992 39.599609 127.60352 C 39.910053 127.56122 40.008102 127.29262 39.810547 127.05273 C 39.739987 126.95393 39.641308 126.87026 39.556641 126.77148 C 39.387308 126.61626 39.218162 126.46035 39.048828 126.29102 C 38.639606 125.88179 38.469189 125.3598 38.455078 124.78125 C 38.440968 124.48491 38.470265 124.17524 38.484375 123.87891 C 38.498485 123.62491 38.567876 123.36987 38.708984 123.1582 C 38.977095 122.80542 39.274176 122.481 39.626953 122.21289 C 39.753953 122.11409 39.895559 122.04384 40.050781 122.01562 C 40.262448 121.98743 40.47388 121.95941 40.685547 121.94531 C 41.010102 121.91711 41.291361 122.05786 41.53125 122.26953 C 41.926361 122.62231 42.111085 123.06036 42.181641 123.56836 C 42.223971 123.94936 42.265386 124.34361 42.335938 124.72461 C 42.392378 124.97861 42.379144 125.21866 42.308594 125.47266 C 42.167483 125.99477 41.983636 126.50396 41.630859 126.94141 C 41.560299 127.02611 41.518895 127.12388 41.476562 127.22266 C 41.420122 127.33555 41.461767 127.43486 41.560547 127.51953 C 41.616987 127.57593 41.687257 127.60504 41.757812 127.61914 C 41.941257 127.66144 42.111478 127.67426 42.294922 127.66016 C 42.746478 127.60376 43.183211 127.56096 43.634766 127.54688 C 43.987543 127.53278 44.142775 127.36406 44.199219 127.02539 C 44.255659 126.71495 44.213128 126.41938 44.142578 126.12305 C 44.086138 125.84083 44.057079 125.55761 44.042969 125.27539 C 44.028859 124.86616 44.015235 124.45761 43.902344 124.0625 C 43.803564 123.65328 43.719872 123.2432 43.621094 122.83398 C 43.578764 122.69286 43.536471 122.55278 43.494141 122.42578 C 43.423581 122.25645 43.381299 122.10097 43.367188 121.93164 C 43.310747 121.57886 43.253074 121.22539 43.154297 120.88672 C 43.027297 120.42106 42.886327 119.9559 42.773438 119.49023 C 42.674658 119.02457 42.43608 118.62861 42.167969 118.26172 C 41.970414 117.99361 41.700433 117.83941 41.347656 117.85352 C 41.192434 117.85352 41.038034 117.85242 40.882812 117.82422 C 40.473591 117.78192 40.063762 117.7691 39.583984 117.7832 z M 40.291016 119.15039 C 40.573238 119.00928 40.826956 119.05198 41.052734 119.26367 C 41.080954 119.29187 41.122161 119.33456 41.150391 119.37695 C 41.305613 119.56039 41.433594 119.92808 41.433594 120.16797 C 41.447704 120.43608 41.334514 120.57637 41.066406 120.63281 C 40.953517 120.66101 40.826219 120.67578 40.699219 120.67578 C 40.473441 120.68988 40.262008 120.76063 40.064453 120.85938 C 39.965673 120.91577 39.866356 120.97134 39.767578 121.01367 C 39.682908 121.05597 39.598338 121.07031 39.513672 121.07031 C 39.372561 121.05621 39.260205 120.97161 39.246094 120.81641 C 39.246094 120.77411 39.245656 120.73175 39.259766 120.68945 C 39.330326 120.29434 39.457573 119.91353 39.753906 119.61719 C 39.92324 119.44786 40.07935 119.26328 40.291016 119.15039 z M 55.742188 119.74414 C 55.6293 119.74414 55.530419 119.75891 55.431641 119.78711 C 55.205863 119.87181 55.092872 120.03941 55.121094 120.2793 C 55.121094 120.3781 55.163186 120.47739 55.191406 120.57617 C 55.290186 120.80195 55.361525 121.02769 55.417969 121.26758 C 55.460299 121.45103 55.515824 121.63535 55.572266 121.80469 C 55.699266 122.17157 55.798147 122.52373 55.882812 122.89062 C 55.925142 123.07407 55.966996 123.27208 56.023438 123.44141 C 56.263326 124.21752 56.420072 125.00665 56.603516 125.79688 C 56.688186 126.14965 56.800734 126.50313 56.927734 126.8418 C 56.955954 126.95469 57.011479 127.06768 57.082031 127.15234 C 57.237253 127.42045 57.462554 127.60459 57.787109 127.63281 C 57.956442 127.64691 58.141017 127.65973 58.253906 127.67383 L 58.591797 127.67383 C 58.662347 127.67383 58.718506 127.66058 58.789062 127.64648 C 59.057173 127.57598 59.18579 127.37748 59.115234 127.10938 C 59.101124 127.03878 59.072704 126.98223 59.058594 126.92578 C 58.945705 126.64356 58.945504 126.34863 59.001953 126.06641 C 59.058393 125.81241 59.100686 125.57236 59.128906 125.31836 C 59.171236 125.07847 59.226957 124.86596 59.339844 124.6543 C 59.523288 124.30152 59.650147 123.92006 59.720703 123.53906 C 59.777143 123.27095 59.863235 123.03286 59.990234 122.79297 C 60.286568 122.17208 60.497364 121.53519 60.582031 120.84375 C 60.610251 120.70264 60.609375 120.56342 60.609375 120.4082 C 60.581155 120.11186 60.271577 119.81533 60.017578 119.78711 C 59.735356 119.75891 59.452144 119.75805 59.169922 119.81445 C 59.127592 119.82855 59.071628 119.84332 59.029297 119.85742 C 58.803519 119.95622 58.733254 120.11016 58.832031 120.33594 C 58.846141 120.40654 58.889301 120.47871 58.931641 120.53516 C 58.973971 120.60576 59.029935 120.67554 59.072266 120.74609 C 59.241599 121.00009 59.297119 121.25444 59.226562 121.55078 C 59.212452 121.62128 59.198142 121.69117 59.169922 121.76172 C 59.113472 122.00161 59.071827 122.24253 59.085938 122.48242 C 59.114157 122.87753 59.015042 123.25855 58.845703 123.61133 C 58.746923 123.82299 58.677099 124.03399 58.634766 124.25977 C 58.535986 124.66899 58.452098 125.07755 58.296875 125.47266 C 58.282765 125.52906 58.254344 125.5998 58.240234 125.65625 C 58.197904 125.72675 58.155415 125.8125 58.056641 125.8125 C 57.943752 125.8125 57.901709 125.72722 57.859375 125.64258 C 57.845265 125.60028 57.830516 125.55748 57.816406 125.5293 C 57.717626 125.24707 57.618748 124.97949 57.505859 124.69727 C 57.449419 124.52794 57.393456 124.35878 57.365234 124.18945 C 57.294674 123.63912 57.153661 123.08745 57.111328 122.53711 C 57.068998 121.81745 57.026411 121.09858 57.181641 120.37891 C 57.181641 120.35071 57.181202 120.3075 57.195312 120.2793 C 57.209423 120.08174 57.125285 119.94165 56.927734 119.87109 C 56.871284 119.84289 56.800586 119.82812 56.744141 119.82812 C 56.405475 119.79993 56.080854 119.77244 55.742188 119.74414 z M 65.167969 119.75781 C 64.518858 119.77191 63.856581 119.70198 63.193359 119.80078 C 63.024026 119.81488 62.854442 119.81445 62.699219 119.81445 C 62.600439 119.82855 62.500683 119.81403 62.416016 119.82812 C 62.063239 119.85632 61.95005 120.02657 62.048828 120.36523 C 62.062938 120.42163 62.077249 120.49238 62.105469 120.54883 C 62.133689 120.66172 62.161661 120.77383 62.175781 120.88672 C 62.274561 121.57817 62.346778 122.28316 62.375 122.97461 C 62.38911 123.3415 62.402096 123.69605 62.472656 124.04883 C 62.500876 124.21816 62.500438 124.40098 62.486328 124.57031 C 62.443998 125.07831 62.402782 125.58619 62.388672 126.08008 C 62.374562 126.37641 62.345314 126.644 62.232422 126.91211 C 62.204202 126.95441 62.189891 126.9831 62.175781 127.02539 C 62.105221 127.27939 62.176128 127.43486 62.416016 127.51953 C 62.641794 127.60423 62.881205 127.66016 63.121094 127.66016 C 63.544427 127.67426 63.969245 127.66016 64.392578 127.66016 L 64.392578 127.67383 L 65.167969 127.67383 C 65.421969 127.67383 65.675688 127.67468 65.929688 127.64648 C 66.338909 127.57598 66.523195 127.40727 66.59375 126.99805 C 66.59375 126.95575 66.607422 126.91339 66.607422 126.87109 C 66.635642 126.39131 66.62197 125.89622 66.59375 125.40234 C 66.57964 125.09189 66.438911 124.93731 66.142578 124.88086 C 65.9168 124.83856 65.67695 124.82465 65.451172 124.81055 C 65.394732 124.79645 65.324022 124.80969 65.267578 124.83789 C 65.0418 124.89429 64.955471 125.10713 65.068359 125.30469 C 65.096579 125.37519 65.154936 125.42989 65.197266 125.48633 C 65.267826 125.57103 65.322901 125.65709 65.365234 125.75586 C 65.435794 125.96753 65.43648 126.19351 65.28125 126.37695 C 65.126028 126.57451 64.913277 126.61655 64.6875 126.57422 C 64.4335 126.51782 64.208396 126.41825 64.039062 126.2207 C 63.88384 126.03726 63.770849 125.84101 63.728516 125.61523 C 63.686186 125.38945 63.658203 125.17695 63.658203 124.95117 C 63.658203 124.6125 63.743658 124.28701 63.884766 123.97656 C 64.110544 123.53912 64.49029 123.32832 64.927734 123.38477 C 65.040623 123.39887 65.154689 123.45607 65.267578 123.48438 C 65.352248 123.51257 65.421193 123.55416 65.505859 123.56836 C 65.731637 123.61066 65.845703 123.51098 65.845703 123.28516 C 65.845703 123.25696 65.859813 123.24304 65.845703 123.21484 C 65.803373 122.89028 65.689304 122.59428 65.505859 122.32617 C 65.350637 122.10039 65.125094 122.03056 64.871094 122.11523 C 64.617094 122.18573 64.391354 122.28511 64.179688 122.41211 C 64.109138 122.45441 64.052977 122.49525 63.982422 122.52344 C 63.784866 122.62224 63.615281 122.56622 63.488281 122.38281 C 63.445951 122.31221 63.418417 122.22725 63.404297 122.14258 C 63.376077 121.94503 63.389501 121.74789 63.488281 121.56445 C 63.685837 121.16934 63.997028 120.87289 64.40625 120.68945 C 64.730805 120.54834 65.041997 120.59061 65.324219 120.81641 C 65.422999 120.88691 65.506691 120.97197 65.605469 121.05664 C 65.676029 121.09894 65.74585 121.15496 65.816406 121.19727 C 66.056294 121.32427 66.226562 121.22556 66.226562 120.94336 C 66.212452 120.68936 66.155854 120.45039 66.042969 120.22461 C 65.958299 120.02706 65.803025 119.9002 65.605469 119.84375 C 65.464358 119.78735 65.323191 119.75781 65.167969 119.75781 z M 46.103516 119.80078 C 45.708405 119.87128 45.623439 120.01203 45.736328 120.37891 C 45.89155 120.91514 45.96333 121.45162 45.949219 122.00195 C 45.935109 122.66517 46.033203 123.32852 46.033203 124.00586 C 46.033203 124.06226 46.046875 124.10374 46.046875 124.16016 C 46.075095 124.38594 46.075095 124.59844 46.046875 124.82422 C 46.004545 125.03589 45.991749 125.23364 46.005859 125.44531 C 46.034079 125.92509 45.935403 126.39067 45.751953 126.82812 C 45.709623 126.91282 45.680564 126.99692 45.652344 127.0957 C 45.610014 127.29325 45.679834 127.43442 45.863281 127.5332 C 45.97617 127.5896 46.090237 127.60352 46.203125 127.60352 C 46.499459 127.61762 46.795464 127.61847 47.091797 127.57617 C 47.317574 127.54797 47.543753 127.56207 47.769531 127.57617 C 48.206975 127.61847 48.658259 127.61733 49.095703 127.67383 C 49.307369 127.67383 49.50557 127.64567 49.703125 127.54688 C 50.197014 127.27877 50.45078 126.7706 50.337891 126.23438 C 50.239111 125.79694 50.126168 125.37514 49.900391 124.99414 C 49.731057 124.71192 49.575583 124.4287 49.40625 124.14648 C 49.30747 123.99126 49.166502 123.84966 49.025391 123.72266 C 48.856058 123.58155 48.657858 123.49761 48.417969 123.51172 C 48.262747 123.52582 48.136961 123.5972 48.066406 123.73828 C 47.840628 124.09105 47.99551 124.48628 48.390625 124.61328 C 48.418845 124.61328 48.432718 124.62695 48.460938 124.62695 C 48.729048 124.66925 48.897317 124.8378 48.996094 125.0918 C 49.038424 125.1765 49.081156 125.26103 49.109375 125.3457 C 49.236375 125.76903 49.138567 126.13682 48.828125 126.44727 C 48.574125 126.71538 48.192818 126.75656 47.896484 126.54492 C 47.515485 126.27681 47.27583 125.92553 47.261719 125.43164 C 47.261719 125.14942 47.218996 124.86577 47.148438 124.59766 C 47.091997 124.34366 47.064453 124.07627 47.064453 123.82227 C 47.078563 123.39894 47.106345 122.97564 47.078125 122.56641 C 47.049905 122.0443 47.148189 121.53534 47.21875 121.02734 C 47.26108 120.74512 47.415483 120.57642 47.683594 120.50586 C 47.754144 120.49176 47.810744 120.47699 47.867188 120.46289 C 47.965967 120.43469 48.050978 120.39331 48.107422 120.30859 C 48.234422 120.16748 48.206449 119.98354 48.037109 119.88477 C 47.938329 119.82837 47.839012 119.81392 47.740234 119.82812 C 47.486235 119.87042 47.232516 119.85718 46.978516 119.80078 C 46.696294 119.74438 46.399849 119.75848 46.103516 119.80078 z M 52.482422 119.85742 C 52.355422 119.85742 52.228563 119.85699 52.101562 119.87109 C 51.904007 119.89929 51.804248 120.02706 51.818359 120.22461 C 51.818359 120.3375 51.860442 120.44961 51.888672 120.5625 C 52.015671 120.9435 52.086816 121.3525 52.058594 121.76172 C 52.044484 121.9875 52.058156 122.22734 52.072266 122.45312 C 52.114596 123.24335 52.156698 124.03444 52.142578 124.81055 C 52.128468 125.5161 52.102098 126.22155 51.833984 126.88477 C 51.791654 126.99766 51.763234 127.10977 51.777344 127.22266 C 51.777344 127.39199 51.860407 127.50454 52.015625 127.54688 C 52.100295 127.57507 52.186818 127.58984 52.271484 127.58984 C 52.553706 127.60394 52.848197 127.60309 53.144531 127.61719 C 53.200971 127.61719 53.244339 127.61762 53.300781 127.60352 C 53.540669 127.57532 53.667772 127.39223 53.611328 127.15234 C 53.597218 127.09594 53.568808 127.0393 53.554688 126.96875 C 53.470017 126.7853 53.428175 126.58818 53.414062 126.39062 C 53.371733 126.12252 53.342673 125.84081 53.314453 125.55859 C 53.272123 125.23403 53.272123 124.90854 53.314453 124.58398 C 53.356783 124.2312 53.384575 123.87861 53.328125 123.51172 C 53.285795 123.20127 53.31553 122.89052 53.34375 122.58008 C 53.37197 122.38252 53.384766 122.19907 53.384766 122.01562 C 53.384766 121.62051 53.442234 121.24037 53.541016 120.85938 C 53.597466 120.67593 53.653419 120.47685 53.681641 120.2793 C 53.738081 120.01119 53.625537 119.88565 53.357422 119.85742 C 53.173978 119.84332 52.976413 119.85742 52.792969 119.85742 L 52.482422 119.85742 z "
         d="m 39.583984,117.7832 c -0.507999,-0.0423 -1.071834,0.0557 -1.65039,0.084 -0.26811,0.0141 -0.522269,0.0996 -0.748047,0.22656 -0.155222,0.0705 -0.282081,0.18311 -0.380859,0.32422 -0.254,0.29633 -0.184174,0.7753 0.210937,1.0293 0.112889,0.0564 0.239992,0.0284 0.310547,-0.0703 0.04233,-0.0423 0.05771,-0.11347 0.08594,-0.16992 0.04233,-0.0705 0.05532,-0.15406 0.09766,-0.22461 0.183445,-0.29634 0.509036,-0.3248 0.720703,-0.0566 0.112888,0.127 0.153857,0.28228 0.167969,0.4375 0.02822,0.21167 0.01586,0.42354 -0.05469,0.6211 -0.08467,0.22578 -0.128028,0.46518 -0.15625,0.70507 -0.01411,0.28222 -0.08375,0.56392 -0.154297,0.83203 -0.141111,0.508 -0.269045,1.0174 -0.410156,1.5254 -0.01411,0.0847 -0.02886,0.16773 -0.04297,0.23828 -0.05644,0.40922 -0.140578,0.80606 -0.267578,1.20117 -0.02822,0.0988 -0.05575,0.20981 -0.08398,0.30859 -0.141111,0.53622 -0.183352,1.08833 -0.253907,1.63867 -0.02822,0.19755 -0.02953,0.38102 0.04102,0.56446 0.08467,0.26811 0.255327,0.45006 0.523437,0.54883 0.112888,0.0423 0.240188,0.0566 0.367188,0.0566 0.169333,0.0141 0.338479,0.0284 0.507812,0.0566 0.395111,0.0423 0.790436,-2.4e-4 1.185547,-0.0566 0.310444,-0.0423 0.408493,-0.3109 0.210938,-0.55079 -0.07056,-0.0988 -0.169239,-0.18247 -0.253906,-0.28125 -0.169333,-0.15522 -0.338479,-0.31113 -0.507813,-0.48046 -0.409222,-0.40923 -0.579639,-0.93122 -0.59375,-1.50977 -0.01411,-0.29634 0.01519,-0.60601 0.0293,-0.90234 0.01411,-0.254 0.0835,-0.50904 0.224609,-0.72071 0.268111,-0.35278 0.565192,-0.6772 0.917969,-0.94531 0.127,-0.0988 0.268606,-0.16905 0.423828,-0.19727 0.211667,-0.0282 0.423099,-0.0562 0.634766,-0.0703 0.324555,-0.0282 0.605814,0.11255 0.845703,0.32422 0.395111,0.35278 0.579835,0.79083 0.650391,1.29883 0.04233,0.381 0.08375,0.77525 0.154297,1.15625 0.05644,0.254 0.04321,0.49405 -0.02734,0.74805 -0.141111,0.52211 -0.324958,1.0313 -0.677735,1.46875 -0.07056,0.0847 -0.111964,0.18247 -0.154297,0.28125 -0.05644,0.11289 -0.01479,0.2122 0.08398,0.29687 0.05644,0.0564 0.12671,0.0855 0.197265,0.0996 0.183445,0.0423 0.353666,0.0551 0.53711,0.041 0.451556,-0.0564 0.888289,-0.0992 1.339844,-0.11328 0.352777,-0.0141 0.508009,-0.18282 0.564453,-0.52149 0.05644,-0.31044 0.01391,-0.60601 -0.05664,-0.90234 -0.05644,-0.28222 -0.0855,-0.56544 -0.09961,-0.84766 -0.01411,-0.40923 -0.02773,-0.81778 -0.140625,-1.21289 -0.09878,-0.40922 -0.182472,-0.8193 -0.28125,-1.22852 -0.04233,-0.14112 -0.08462,-0.2812 -0.126953,-0.4082 -0.07056,-0.16933 -0.112842,-0.32481 -0.126953,-0.49414 -0.05644,-0.35278 -0.114114,-0.70625 -0.212891,-1.04492 -0.127,-0.46566 -0.26797,-0.93082 -0.380859,-1.39649 -0.09878,-0.46566 -0.337358,-0.86162 -0.605469,-1.22851 -0.197555,-0.26811 -0.467536,-0.42231 -0.820313,-0.4082 -0.155222,0 -0.309622,-0.001 -0.464844,-0.0293 -0.409221,-0.0423 -0.81905,-0.0551 -1.298828,-0.041 z m 0.707032,1.36719 c 0.282222,-0.14111 0.53594,-0.0984 0.761718,0.11328 0.02822,0.0282 0.06943,0.0709 0.09766,0.11328 0.155222,0.18344 0.283203,0.55113 0.283203,0.79102 0.01411,0.26811 -0.09908,0.4084 -0.367188,0.46484 -0.112889,0.0282 -0.240187,0.043 -0.367187,0.043 -0.225778,0.0141 -0.437211,0.0849 -0.634766,0.1836 -0.09878,0.0564 -0.198097,0.11196 -0.296875,0.15429 -0.08467,0.0423 -0.16924,0.0566 -0.253906,0.0566 -0.141111,-0.0141 -0.253467,-0.0987 -0.267578,-0.2539 0,-0.0423 -4.38e-4,-0.0847 0.01367,-0.12696 0.07056,-0.39511 0.197807,-0.77592 0.49414,-1.07226 0.169334,-0.16933 0.325444,-0.35391 0.53711,-0.4668 z m 15.451172,0.59375 c -0.112888,0 -0.211769,0.0148 -0.310547,0.043 -0.225778,0.0847 -0.338769,0.2523 -0.310547,0.49219 0,0.0988 0.04209,0.19809 0.07031,0.29687 0.09878,0.22578 0.170119,0.45152 0.226563,0.69141 0.04233,0.18345 0.09786,0.36777 0.154297,0.53711 0.127,0.36688 0.225881,0.71904 0.310546,1.08593 0.04233,0.18345 0.08418,0.38146 0.140626,0.55079 0.239888,0.77611 0.396634,1.56524 0.580078,2.35547 0.08467,0.35277 0.197218,0.70625 0.324218,1.04492 0.02822,0.11289 0.08375,0.22588 0.154297,0.31054 0.155222,0.26811 0.380523,0.45225 0.705078,0.48047 0.169333,0.0141 0.353908,0.0269 0.466797,0.041 h 0.337891 c 0.07055,0 0.126709,-0.0132 0.197265,-0.0273 0.268111,-0.0705 0.396728,-0.269 0.326172,-0.5371 -0.01411,-0.0706 -0.04253,-0.12715 -0.05664,-0.1836 -0.112889,-0.28222 -0.11309,-0.57715 -0.05664,-0.85937 0.05644,-0.254 0.09873,-0.49405 0.126953,-0.74805 0.04233,-0.23989 0.09805,-0.4524 0.210938,-0.66406 0.183444,-0.35278 0.310303,-0.73424 0.380859,-1.11524 0.05644,-0.26811 0.142532,-0.5062 0.269531,-0.74609 0.296334,-0.62089 0.50713,-1.25778 0.591797,-1.94922 0.02822,-0.14111 0.02734,-0.28033 0.02734,-0.43555 -0.02822,-0.29634 -0.337798,-0.59287 -0.591797,-0.62109 -0.282222,-0.0282 -0.565434,-0.0291 -0.847656,0.0273 -0.04233,0.0141 -0.09829,0.0289 -0.140625,0.043 -0.225778,0.0988 -0.296043,0.25274 -0.197266,0.47852 0.01411,0.0706 0.05727,0.14277 0.09961,0.19922 0.04233,0.0706 0.09829,0.14038 0.140625,0.21093 0.169333,0.254 0.224853,0.50835 0.154296,0.80469 -0.01411,0.0705 -0.02842,0.14039 -0.05664,0.21094 -0.05645,0.23989 -0.0981,0.48081 -0.08398,0.7207 0.02822,0.39511 -0.0709,0.77613 -0.240235,1.12891 -0.09878,0.21166 -0.168604,0.42266 -0.210937,0.64844 -0.09878,0.40922 -0.182668,0.81778 -0.337891,1.21289 -0.01411,0.0564 -0.04253,0.12714 -0.05664,0.18359 -0.04233,0.0705 -0.08482,0.15625 -0.183593,0.15625 -0.112889,0 -0.154932,-0.0853 -0.197266,-0.16992 -0.01411,-0.0423 -0.02886,-0.0851 -0.04297,-0.11328 -0.09878,-0.28223 -0.197658,-0.54981 -0.310547,-0.83203 -0.05644,-0.16933 -0.112403,-0.33849 -0.140625,-0.50782 -0.07056,-0.55033 -0.211573,-1.102 -0.253906,-1.65234 -0.04233,-0.71966 -0.08492,-1.43853 0.07031,-2.1582 0,-0.0282 -4.39e-4,-0.0714 0.01367,-0.0996 0.01411,-0.19756 -0.07003,-0.33765 -0.267578,-0.40821 -0.05645,-0.0282 -0.127148,-0.043 -0.183593,-0.043 -0.338666,-0.0282 -0.663287,-0.0557 -1.001953,-0.084 z m 9.425781,0.0137 c -0.649111,0.0141 -1.311388,-0.0558 -1.97461,0.043 -0.169333,0.0141 -0.338917,0.0137 -0.49414,0.0137 -0.09878,0.0141 -0.198536,-4.2e-4 -0.283203,0.0137 -0.352777,0.0282 -0.465966,0.19845 -0.367188,0.53711 0.01411,0.0564 0.02842,0.12715 0.05664,0.1836 0.02822,0.11289 0.05619,0.225 0.07031,0.33789 0.09878,0.69145 0.170997,1.39644 0.199219,2.08789 0.01411,0.36689 0.0271,0.72144 0.09766,1.07422 0.02822,0.16933 0.02778,0.35215 0.01367,0.52148 -0.04233,0.508 -0.08355,1.01588 -0.09766,1.50977 -0.01411,0.29633 -0.04336,0.56392 -0.15625,0.83203 -0.02822,0.0423 -0.04253,0.071 -0.05664,0.11328 -0.07056,0.254 3.47e-4,0.40947 0.240235,0.49414 0.225778,0.0847 0.465189,0.14063 0.705078,0.14063 0.423333,0.0141 0.848151,0 1.271484,0 v 0.0137 h 0.775391 c 0.254,0 0.507719,8.5e-4 0.761719,-0.0273 0.409221,-0.0705 0.593507,-0.23921 0.664062,-0.64843 0,-0.0423 0.01367,-0.0847 0.01367,-0.12696 0.02822,-0.47978 0.01455,-0.97487 -0.01367,-1.46875 -0.01411,-0.31045 -0.154839,-0.46503 -0.451172,-0.52148 -0.225778,-0.0423 -0.465628,-0.0562 -0.691406,-0.0703 -0.05644,-0.0141 -0.12715,-8.6e-4 -0.183594,0.0273 -0.225778,0.0564 -0.312107,0.26924 -0.199219,0.4668 0.02822,0.0705 0.08658,0.1252 0.128907,0.18164 0.07056,0.0847 0.125635,0.17076 0.167968,0.26953 0.07056,0.21167 0.07125,0.43765 -0.08398,0.62109 -0.155222,0.19756 -0.367973,0.2396 -0.59375,0.19727 -0.254,-0.0564 -0.479104,-0.15597 -0.648438,-0.35352 -0.155222,-0.18344 -0.268213,-0.37969 -0.310546,-0.60547 -0.04233,-0.22578 -0.07031,-0.43828 -0.07031,-0.66406 0,-0.33867 0.08546,-0.66416 0.226563,-0.97461 0.225778,-0.43744 0.605524,-0.64824 1.042968,-0.59179 0.112889,0.0141 0.226955,0.0713 0.339844,0.0996 0.08467,0.0282 0.153615,0.0698 0.238281,0.084 0.225778,0.0423 0.339844,-0.0574 0.339844,-0.2832 0,-0.0282 0.01411,-0.0421 0,-0.0703 -0.04233,-0.32456 -0.156399,-0.62056 -0.339844,-0.88867 -0.155222,-0.22578 -0.380765,-0.29561 -0.634765,-0.21094 -0.254,0.0705 -0.47974,0.16988 -0.691406,0.29688 -0.07055,0.0423 -0.126711,0.0831 -0.197266,0.11133 -0.197556,0.0988 -0.367141,0.0428 -0.494141,-0.14063 -0.04233,-0.0706 -0.06986,-0.15556 -0.08398,-0.24023 -0.02822,-0.19755 -0.0148,-0.39469 0.08398,-0.57813 0.197556,-0.39511 0.508747,-0.69156 0.917969,-0.875 0.324555,-0.14111 0.635747,-0.0988 0.917969,0.12696 0.09878,0.0705 0.182472,0.15556 0.28125,0.24023 0.07056,0.0423 0.140381,0.0983 0.210937,0.14063 0.239888,0.127 0.410156,0.0283 0.410156,-0.25391 -0.01411,-0.254 -0.07071,-0.49297 -0.183593,-0.71875 -0.08467,-0.19755 -0.239944,-0.32441 -0.4375,-0.38086 -0.141111,-0.0564 -0.282278,-0.0859 -0.4375,-0.0859 z m -19.064453,0.043 c -0.395111,0.0705 -0.480077,0.21125 -0.367188,0.57813 0.155222,0.53623 0.227002,1.07271 0.212891,1.62304 -0.01411,0.66322 0.08398,1.32657 0.08398,2.00391 0,0.0564 0.01367,0.0979 0.01367,0.1543 0.02822,0.22578 0.02822,0.43828 0,0.66406 -0.04233,0.21167 -0.05513,0.40942 -0.04102,0.62109 0.02822,0.47978 -0.07046,0.94536 -0.253906,1.38281 -0.04233,0.0847 -0.07139,0.1688 -0.09961,0.26758 -0.04233,0.19755 0.02749,0.33872 0.210937,0.4375 0.112889,0.0564 0.226956,0.0703 0.339844,0.0703 0.296334,0.0141 0.592339,0.0149 0.888672,-0.0273 0.225777,-0.0282 0.451956,-0.0141 0.677734,0 0.437444,0.0423 0.888728,0.0412 1.326172,0.0977 0.211666,0 0.409867,-0.0282 0.607422,-0.12695 0.493889,-0.26811 0.747655,-0.77628 0.634766,-1.3125 -0.09878,-0.43744 -0.211723,-0.85924 -0.4375,-1.24024 -0.169334,-0.28222 -0.324808,-0.56544 -0.494141,-0.84766 -0.09878,-0.15522 -0.239748,-0.29682 -0.380859,-0.42382 -0.169333,-0.14111 -0.367533,-0.22505 -0.607422,-0.21094 -0.155222,0.0141 -0.281008,0.0855 -0.351563,0.22656 -0.225778,0.35277 -0.0709,0.748 0.324219,0.875 0.02822,0 0.04209,0.0137 0.07031,0.0137 0.26811,0.0423 0.436379,0.21085 0.535156,0.46485 0.04233,0.0847 0.08506,0.16923 0.113281,0.2539 0.127,0.42333 0.02919,0.79112 -0.28125,1.10157 -0.254,0.26811 -0.635307,0.30929 -0.931641,0.0977 -0.380999,-0.26811 -0.620654,-0.61939 -0.634765,-1.11328 0,-0.28222 -0.04272,-0.56587 -0.113281,-0.83398 -0.05644,-0.254 -0.08398,-0.52139 -0.08398,-0.77539 0.01411,-0.42333 0.04189,-0.84663 0.01367,-1.25586 -0.02822,-0.52211 0.07006,-1.03107 0.140625,-1.53907 0.04233,-0.28222 0.196733,-0.45092 0.464844,-0.52148 0.07055,-0.0141 0.12715,-0.0289 0.183594,-0.043 0.09878,-0.0282 0.18379,-0.0696 0.240234,-0.1543 0.127,-0.14111 0.09903,-0.32505 -0.07031,-0.42382 -0.09878,-0.0564 -0.198097,-0.0709 -0.296875,-0.0567 -0.253999,0.0423 -0.507718,0.0291 -0.761718,-0.0273 -0.282222,-0.0564 -0.578667,-0.0423 -0.875,0 z m 6.378906,0.0566 c -0.127,0 -0.253859,-4.3e-4 -0.38086,0.0137 -0.197555,0.0282 -0.297314,0.15597 -0.283203,0.35352 0,0.11289 0.04208,0.225 0.07031,0.33789 0.126999,0.381 0.198144,0.79 0.169922,1.19922 -0.01411,0.22578 -4.38e-4,0.46562 0.01367,0.6914 0.04233,0.79023 0.08443,1.58132 0.07031,2.35743 -0.01411,0.70555 -0.04048,1.411 -0.308594,2.07422 -0.04233,0.11289 -0.07075,0.225 -0.05664,0.33789 0,0.16933 0.08306,0.28188 0.238281,0.32422 0.08467,0.0282 0.171193,0.043 0.255859,0.043 0.282222,0.0141 0.576713,0.0132 0.873047,0.0273 0.05644,0 0.09981,4.3e-4 0.15625,-0.0137 0.239888,-0.0282 0.366991,-0.21129 0.310547,-0.45118 -0.01411,-0.0564 -0.04252,-0.11304 -0.05664,-0.18359 -0.08467,-0.18345 -0.126513,-0.38057 -0.140626,-0.57813 -0.04233,-0.2681 -0.07139,-0.54981 -0.09961,-0.83203 -0.04233,-0.32456 -0.04233,-0.65005 0,-0.97461 0.04233,-0.35278 0.07012,-0.70537 0.01367,-1.07226 -0.04233,-0.31045 -0.01259,-0.6212 0.01563,-0.93164 0.02822,-0.19756 0.04102,-0.38101 0.04102,-0.56446 0,-0.39511 0.05747,-0.77525 0.15625,-1.15624 0.05645,-0.18345 0.112403,-0.38253 0.140625,-0.58008 0.05644,-0.26811 -0.0561,-0.39365 -0.324219,-0.42188 -0.183444,-0.0141 -0.381009,0 -0.564453,0 z" />
    </g>
  </g>
</svg>
